<svg xmlns="http://www.w3.org/2000/svg" version="1.1" xmlns:xlink="http://www.w3.org/1999/xlink" xmlns:svgjs="http://svgjs.dev/svgjs" width="1000" height="217" viewBox="0 0 1000 217"><g transform="matrix(1,0,0,1,-0.6060606060606233,-0.6295304679425726)"><svg viewBox="0 0 396 86" data-background-color="#ffffff" preserveAspectRatio="xMidYMid meet" height="217" width="1000" xmlns="http://www.w3.org/2000/svg" xmlns:xlink="http://www.w3.org/1999/xlink"><g id="tight-bounds" transform="matrix(1,0,0,1,0.2400000000000091,0.24949133752562602)"><svg viewBox="0 0 395.52 85.50101732494878" height="85.50101732494878" width="395.52"><g><svg viewBox="0 0 542.4547935987432 117.26445364453797" height="85.50101732494878" width="395.52"><g><rect width="4.851776097798171" height="117.26445364453797" x="129.38203295173523" y="0" fill="#253ad4" opacity="1" stroke-width="0" stroke="transparent" fill-opacity="1" class="rect-r$-0" data-fill-palette-color="primary" rx="1%" id="r$-0" data-palette-color="#253ad4"></rect></g><g transform="matrix(1,0,0,1,146.93479359874325,0.2917026210063085)"><svg viewBox="0 0 395.52 116.68104840252535" height="116.68104840252535" width="395.52"><g id="textblocktransform"><svg viewBox="0 0 395.52 116.68104840252535" height="116.68104840252535" width="395.52" id="textblock"><g><svg viewBox="0 0 395.52 116.68104840252535" height="116.68104840252535" width="395.52"><g transform="matrix(1,0,0,1,0,0)"><svg width="395.52" viewBox="1.6999999999999984 -35.2 261.34999999999997 74.1" height="116.68104840252535" data-palette-color="#253ad4"><svg></svg><svg></svg><g class="wordmark-text-0" data-fill-palette-color="primary" id="text-0"><path d="M27.2 0l-2.5-7.1h-14.55l-2.5 7.1h-5.95l12.45-34.8h6.6l12.45 34.8zM11.75-11.75h11.35l-5.65-16.15zM36.7-17.45c0-3.4 0.793-6.45 2.38-9.15 1.58-2.7 3.73-4.81 6.45-6.33 2.713-1.513 5.687-2.27 8.92-2.27v0c3.7 0 6.993 0.907 9.88 2.72 2.88 1.82 4.97 4.397 6.27 7.73v0h-6.85c-0.9-1.833-2.15-3.2-3.75-4.1-1.6-0.9-3.45-1.35-5.55-1.35v0c-2.3 0-4.35 0.517-6.15 1.55-1.8 1.033-3.207 2.517-4.22 4.45-1.02 1.933-1.53 4.183-1.53 6.75v0c0 2.567 0.51 4.817 1.53 6.75 1.013 1.933 2.42 3.423 4.22 4.47 1.8 1.053 3.85 1.58 6.15 1.58v0c2.1 0 3.95-0.45 5.55-1.35 1.6-0.9 2.85-2.267 3.75-4.1v0h6.85c-1.3 3.333-3.39 5.9-6.27 7.7-2.887 1.8-6.18 2.7-9.88 2.7v0c-3.267 0-6.25-0.76-8.95-2.28-2.7-1.513-4.84-3.62-6.42-6.32-1.587-2.7-2.38-5.75-2.38-9.15zM100.7 0l-2.5-7.1h-14.55l-2.5 7.1h-5.95l12.45-34.8h6.6l12.45 34.8zM85.25-11.75h11.35l-5.65-16.15zM123.45-34.75c3.7 0 6.943 0.707 9.73 2.12 2.78 1.42 4.93 3.453 6.45 6.1 1.513 2.653 2.27 5.747 2.27 9.28v0c0 3.533-0.757 6.6-2.27 9.2-1.52 2.6-3.67 4.59-6.45 5.97-2.787 1.387-6.03 2.08-9.73 2.08v0h-11.35v-34.75zM123.45-4.65c4.067 0 7.183-1.1 9.35-3.3 2.167-2.2 3.25-5.3 3.25-9.3v0c0-4.033-1.083-7.183-3.25-9.45-2.167-2.267-5.283-3.4-9.35-3.4v0h-5.65v25.45zM166.75-30.15h-13.5v10.2h12v4.65h-12v10.65h13.5v4.65h-19.2v-34.8h19.2zM204.25-34.75h6.1v34.75h-5.7v-23.8l-10.6 23.8h-3.95l-10.65-23.8v23.8h-5.7v-34.75h6.15l12.2 27.25zM217.85-34.75h5.7v34.75h-5.7zM229.15-17.45c0-3.4 0.79-6.45 2.37-9.15 1.587-2.7 3.737-4.81 6.45-6.33 2.72-1.513 5.697-2.27 8.93-2.27v0c3.7 0 6.99 0.907 9.87 2.72 2.887 1.82 4.98 4.397 6.28 7.73v0h-6.85c-0.9-1.833-2.15-3.2-3.75-4.1-1.6-0.9-3.45-1.35-5.55-1.35v0c-2.3 0-4.35 0.517-6.15 1.55-1.8 1.033-3.21 2.517-4.23 4.45-1.013 1.933-1.52 4.183-1.52 6.75v0c0 2.567 0.507 4.817 1.52 6.75 1.02 1.933 2.43 3.423 4.23 4.47 1.8 1.053 3.85 1.58 6.15 1.58v0c2.1 0 3.95-0.45 5.55-1.35 1.6-0.9 2.85-2.267 3.75-4.1v0h6.85c-1.3 3.333-3.393 5.9-6.28 7.7-2.88 1.8-6.17 2.7-9.87 2.7v0c-3.267 0-6.25-0.76-8.95-2.28-2.7-1.513-4.843-3.62-6.43-6.32-1.58-2.7-2.37-5.75-2.37-9.15z" fill="#253ad4" fill-rule="nonzero" stroke="none" stroke-width="1" stroke-linecap="butt" stroke-linejoin="miter" stroke-miterlimit="10" stroke-dasharray="" stroke-dashoffset="0" font-family="none" font-weight="none" font-size="none" text-anchor="none" style="mix-blend-mode: normal" data-fill-palette-color="primary" opacity="1"></path><path transform="translate(0,38.55)" d="M1.85-17.45c0-3.4 0.793-6.45 2.38-9.15 1.58-2.7 3.73-4.81 6.45-6.33 2.713-1.513 5.687-2.27 8.92-2.27v0c3.7 0 6.993 0.907 9.88 2.72 2.88 1.82 4.97 4.397 6.27 7.73v0h-6.85c-0.9-1.833-2.15-3.2-3.75-4.1-1.6-0.9-3.45-1.35-5.55-1.35v0c-2.3 0-4.35 0.517-6.15 1.55-1.8 1.033-3.21 2.517-4.23 4.45-1.013 1.933-1.52 4.183-1.52 6.75v0c0 2.567 0.507 4.817 1.52 6.75 1.02 1.933 2.43 3.423 4.23 4.47 1.8 1.053 3.85 1.58 6.15 1.58v0c2.1 0 3.95-0.45 5.55-1.35 1.6-0.9 2.85-2.267 3.75-4.1v0h6.85c-1.3 3.333-3.39 5.9-6.27 7.7-2.887 1.8-6.18 2.7-9.88 2.7v0c-3.267 0-6.25-0.76-8.95-2.28-2.7-1.513-4.84-3.62-6.42-6.32-1.587-2.7-2.38-5.75-2.38-9.15zM58.25 0.35c-3.233 0-6.207-0.76-8.92-2.28-2.72-1.513-4.87-3.63-6.45-6.35-1.587-2.713-2.38-5.77-2.38-9.17v0c0-3.4 0.793-6.45 2.38-9.15 1.58-2.7 3.73-4.81 6.45-6.33 2.713-1.513 5.687-2.27 8.92-2.27v0c3.267 0 6.26 0.757 8.98 2.27 2.713 1.52 4.853 3.63 6.42 6.33 1.567 2.7 2.35 5.75 2.35 9.15v0c0 3.4-0.783 6.457-2.35 9.17-1.567 2.72-3.707 4.837-6.42 6.35-2.72 1.52-5.713 2.28-8.98 2.28zM58.25-4.6c2.3 0 4.35-0.527 6.15-1.58 1.8-1.047 3.21-2.547 4.23-4.5 1.013-1.947 1.52-4.203 1.52-6.77v0c0-2.567-0.507-4.817-1.52-6.75-1.02-1.933-2.43-3.417-4.23-4.45-1.8-1.033-3.85-1.55-6.15-1.55v0c-2.3 0-4.35 0.517-6.15 1.55-1.8 1.033-3.207 2.517-4.22 4.45-1.02 1.933-1.53 4.183-1.53 6.75v0c0 2.567 0.51 4.823 1.53 6.77 1.013 1.953 2.42 3.453 4.22 4.5 1.8 1.053 3.85 1.58 6.15 1.58zM112.1-34.75h6.1v34.75h-5.7v-23.8l-10.6 23.8h-3.95l-10.65-23.8v23.8h-5.7v-34.75h6.15l12.2 27.25zM150-24.4c0 1.767-0.417 3.433-1.25 5-0.833 1.567-2.167 2.84-4 3.82-1.833 0.987-4.183 1.48-7.05 1.48v0h-6.3v14.1h-5.7v-34.75h12c2.667 0 4.927 0.457 6.78 1.37 1.847 0.92 3.23 2.163 4.15 3.73 0.913 1.567 1.37 3.317 1.37 5.25zM137.7-18.75c2.167 0 3.783-0.493 4.85-1.48 1.067-0.98 1.6-2.37 1.6-4.17v0c0-3.8-2.15-5.7-6.45-5.7v0h-6.3v11.35zM178.9 0l-2.5-7.1h-14.55l-2.5 7.1h-5.95l12.45-34.8h6.6l12.45 34.8zM163.45-11.75h11.35l-5.65-16.15zM201.75 0.35c-2.333 0-4.433-0.41-6.3-1.23-1.867-0.813-3.333-1.97-4.4-3.47-1.067-1.5-1.6-3.25-1.6-5.25v0h6.1c0.133 1.5 0.727 2.733 1.78 3.7 1.047 0.967 2.52 1.45 4.42 1.45v0c1.967 0 3.5-0.477 4.6-1.43 1.1-0.947 1.65-2.17 1.65-3.67v0c0-1.167-0.34-2.117-1.02-2.85-0.687-0.733-1.537-1.3-2.55-1.7-1.02-0.4-2.43-0.833-4.23-1.3v0c-2.267-0.6-4.107-1.21-5.52-1.83-1.42-0.613-2.63-1.57-3.63-2.87-1-1.3-1.5-3.033-1.5-5.2v0c0-2 0.5-3.75 1.5-5.25 1-1.5 2.4-2.65 4.2-3.45 1.8-0.8 3.883-1.2 6.25-1.2v0c3.367 0 6.127 0.84 8.28 2.52 2.147 1.687 3.337 3.997 3.57 6.93v0h-6.3c-0.1-1.267-0.7-2.35-1.8-3.25-1.1-0.9-2.55-1.35-4.35-1.35v0c-1.633 0-2.967 0.417-4 1.25-1.033 0.833-1.55 2.033-1.55 3.6v0c0 1.067 0.327 1.94 0.98 2.62 0.647 0.687 1.47 1.23 2.47 1.63 1 0.4 2.367 0.833 4.1 1.3v0c2.3 0.633 4.177 1.267 5.63 1.9 1.447 0.633 2.68 1.607 3.7 2.92 1.013 1.32 1.52 3.08 1.52 5.28v0c0 1.767-0.473 3.433-1.42 5-0.953 1.567-2.337 2.827-4.15 3.78-1.82 0.947-3.963 1.42-6.43 1.42zM231.95 0.35c-2.333 0-4.433-0.41-6.3-1.23-1.867-0.813-3.333-1.97-4.4-3.47-1.067-1.5-1.6-3.25-1.6-5.25v0h6.1c0.133 1.5 0.727 2.733 1.78 3.7 1.047 0.967 2.52 1.45 4.42 1.45v0c1.967 0 3.5-0.477 4.6-1.43 1.1-0.947 1.65-2.17 1.65-3.67v0c0-1.167-0.34-2.117-1.02-2.85-0.687-0.733-1.537-1.3-2.55-1.7-1.02-0.4-2.43-0.833-4.23-1.3v0c-2.267-0.6-4.107-1.21-5.52-1.83-1.42-0.613-2.63-1.57-3.63-2.87-1-1.3-1.5-3.033-1.5-5.2v0c0-2 0.5-3.75 1.5-5.25 1-1.5 2.4-2.65 4.2-3.45 1.8-0.8 3.883-1.2 6.25-1.2v0c3.367 0 6.123 0.84 8.27 2.52 2.153 1.687 3.347 3.997 3.58 6.93v0h-6.3c-0.1-1.267-0.7-2.35-1.8-3.25-1.1-0.9-2.55-1.35-4.35-1.35v0c-1.633 0-2.967 0.417-4 1.25-1.033 0.833-1.55 2.033-1.55 3.6v0c0 1.067 0.327 1.94 0.98 2.62 0.647 0.687 1.47 1.23 2.47 1.63 1 0.4 2.367 0.833 4.1 1.3v0c2.3 0.633 4.173 1.267 5.62 1.9 1.453 0.633 2.69 1.607 3.71 2.92 1.013 1.32 1.52 3.08 1.52 5.28v0c0 1.767-0.473 3.433-1.42 5-0.953 1.567-2.337 2.827-4.15 3.78-1.82 0.947-3.963 1.42-6.43 1.42z" fill="#253ad4" fill-rule="nonzero" stroke="none" stroke-width="1" stroke-linecap="butt" stroke-linejoin="miter" stroke-miterlimit="10" stroke-dasharray="" stroke-dashoffset="0" font-family="none" font-weight="none" font-size="none" text-anchor="none" style="mix-blend-mode: normal" data-fill-palette-color="primary" opacity="1"></path></g></svg></g></svg></g></svg></g></svg></g><g transform="matrix(1,0,0,1,0,0.2917026210063014)"><svg viewBox="0 0 116.68104840252536 116.68104840252536" height="116.68104840252536" width="116.68104840252536"><g><svg xmlns="http://www.w3.org/2000/svg" xmlns:xlink="http://www.w3.org/1999/xlink" version="1.1" x="0" y="0" viewBox="0 0 100 100" enable-background="new 0 0 100 100" xml:space="preserve" height="116.68104840252536" width="116.68104840252536" class="icon-icon-0" data-fill-palette-color="accent" id="icon-0"><g fill="#6a1ead" data-fill-palette-color="accent"><path d="M77.752 54.535L100 50l-22.249-4.535c-0.914-5.62-3.53-11.018-7.863-15.352-4.334-4.333-9.732-6.951-15.353-7.864L50 0l-4.535 22.249c-3.292 0.535-6.5 1.672-9.47 3.377L3.596 3.596l22.03 32.398c-1.706 2.97-2.843 6.179-3.377 9.47L0 50l22.249 4.535c0.913 5.621 3.53 11.019 7.864 15.353 4.333 4.334 9.731 6.95 15.352 7.864L50 100l4.535-22.248c3.292-0.535 6.501-1.672 9.472-3.379l32.397 22.031L74.373 64.007C76.08 61.036 77.216 57.828 77.752 54.535zM49.986 71.751c-5.564 0-11.126-2.119-15.372-6.365-6.308-6.307-7.922-15.522-4.865-23.33l11.412 16.783 16.782 11.413C55.392 71.25 52.688 71.751 49.986 71.751zM46.316 46.317c1.017-1.017 2.35-1.525 3.683-1.525 1.333 0 2.666 0.509 3.684 1.526 2.034 2.034 2.034 5.332 0 7.366-1.018 1.016-2.35 1.524-3.683 1.524-1.333 0-2.666-0.509-3.683-1.524C44.283 51.649 44.283 48.351 46.316 46.317zM70.25 57.943L58.839 41.161 42.056 29.749c2.552-0.999 5.255-1.499 7.958-1.499 5.563 0 11.126 2.119 15.372 6.365C71.693 40.922 73.309 50.137 70.25 57.943z" fill="#6a1ead" data-fill-palette-color="accent"></path><path d="M43.401 11.508l2.306-11.314c-9.032 0.773-17.891 3.99-25.506 9.656l9.743 6.625C34.144 13.958 38.713 12.307 43.401 11.508z" fill="#6a1ead" data-fill-palette-color="accent"></path><path d="M56.598 88.493l-2.307 11.313c9.032-0.773 17.893-3.989 25.508-9.655l-9.742-6.626C65.855 86.042 61.286 87.693 56.598 88.493z" fill="#6a1ead" data-fill-palette-color="accent"></path><path d="M16.474 29.945l-6.625-9.743c-5.666 7.615-8.882 16.474-9.656 25.505l11.314-2.306C12.307 38.714 13.958 34.145 16.474 29.945z" fill="#6a1ead" data-fill-palette-color="accent"></path><path d="M22.378 77.621c-5.943-5.942-9.559-13.324-10.871-21.023L0.193 54.291c0.97 11.331 5.781 22.395 14.451 31.064 8.67 8.67 19.733 13.48 31.063 14.451l-2.306-11.313C35.703 87.181 28.321 83.564 22.378 77.621z" fill="#6a1ead" data-fill-palette-color="accent"></path><path d="M77.621 22.379c5.942 5.942 9.559 13.325 10.872 21.023l11.313 2.306c-0.971-11.33-5.781-22.393-14.451-31.063C76.686 5.974 65.622 1.164 54.291 0.193l2.307 11.314C64.297 12.82 71.679 16.436 77.621 22.379z" fill="#6a1ead" data-fill-palette-color="accent"></path><path d="M83.525 70.055l6.626 9.744c5.666-7.615 8.882-16.476 9.655-25.508l-11.313 2.307C87.693 61.286 86.042 65.855 83.525 70.055z" fill="#6a1ead" data-fill-palette-color="accent"></path></g></svg></g></svg></g></svg></g><defs></defs></svg><rect width="395.52" height="85.50101732494878" fill="none" stroke="none" visibility="hidden"></rect></g></svg></g></svg>